<svg xmlns="http://www.w3.org/2000/svg" viewBox="0 0 1422 800" opacity="1"><defs><linearGradient x1="50%" y1="0%" x2="50%" y2="100%" id="oooscillate-grad"><stop stop-color="hsl(206, 75%, 49%)" stop-opacity="1" offset="0%"></stop><stop stop-color="hsl(331, 90%, 56%)" stop-opacity="1" offset="100%"></stop></linearGradient></defs><g stroke-width="2" stroke="url(#oooscillate-grad)" fill="none" stroke-linecap="round"><path d="M 0 572 Q 355.5 -100 711 400 Q 1066.5 900 1422 572" stroke-dasharray="19 16"></path><path d="M 0 550 Q 355.5 -100 711 400 Q 1066.5 900 1422 550" stroke-dasharray="15 1"></path><path d="M 0 528 Q 355.5 -100 711 400 Q 1066.5 900 1422 528" stroke-dasharray="9 29"></path><path d="M 0 506 Q 355.5 -100 711 400 Q 1066.5 900 1422 506" stroke-dasharray="26 7"></path><path d="M 0 484 Q 355.5 -100 711 400 Q 1066.5 900 1422 484" stroke-dasharray="15 31"></path><path d="M 0 462 Q 355.5 -100 711 400 Q 1066.5 900 1422 462" stroke-dasharray="0 1"></path><path d="M 0 440 Q 355.5 -100 711 400 Q 1066.5 900 1422 440" stroke-dasharray="3 6"></path><path d="M 0 418 Q 355.5 -100 711 400 Q 1066.5 900 1422 418" stroke-dasharray="18 1"></path><path d="M 0 396 Q 355.5 -100 711 400 Q 1066.5 900 1422 396" stroke-dasharray="19 4"></path><path d="M 0 374 Q 355.5 -100 711 400 Q 1066.5 900 1422 374" stroke-dasharray="7 13"></path><path d="M 0 352 Q 355.5 -100 711 400 Q 1066.5 900 1422 352" stroke-dasharray="20 19"></path><path d="M 0 330 Q 355.5 -100 711 400 Q 1066.5 900 1422 330" stroke-dasharray="10 11"></path><path d="M 0 308 Q 355.5 -100 711 400 Q 1066.5 900 1422 308" stroke-dasharray="3 9"></path><path d="M 0 286 Q 355.5 -100 711 400 Q 1066.5 900 1422 286" stroke-dasharray="12 22"></path><path d="M 0 264 Q 355.5 -100 711 400 Q 1066.5 900 1422 264" stroke-dasharray="3 17"></path><path d="M 0 242 Q 355.5 -100 711 400 Q 1066.5 900 1422 242" stroke-dasharray="3 18"></path><path d="M 0 220 Q 355.5 -100 711 400 Q 1066.5 900 1422 220" stroke-dasharray="20 13"></path><path d="M 0 198 Q 355.5 -100 711 400 Q 1066.5 900 1422 198" stroke-dasharray="11 28"></path><path d="M 0 176 Q 355.5 -100 711 400 Q 1066.5 900 1422 176" stroke-dasharray="17 15"></path><path d="M 0 154 Q 355.5 -100 711 400 Q 1066.5 900 1422 154" stroke-dasharray="26 13"></path><path d="M 0 132 Q 355.5 -100 711 400 Q 1066.5 900 1422 132" stroke-dasharray="19 16"></path><path d="M 0 110 Q 355.5 -100 711 400 Q 1066.5 900 1422 110" stroke-dasharray="3 16"></path><path d="M 0 88 Q 355.5 -100 711 400 Q 1066.5 900 1422 88" stroke-dasharray="5 20"></path><path d="M 0 66 Q 355.5 -100 711 400 Q 1066.5 900 1422 66" stroke-dasharray="28 26"></path><path d="M 0 44 Q 355.5 -100 711 400 Q 1066.5 900 1422 44" stroke-dasharray="19 29"></path></g></svg>
